<svg width="50" height="36" viewBox="0 0 50 36" fill="none" xmlns="http://www.w3.org/2000/svg">
<path d="M31.5 18C36.4725 18 40.5 13.9725 40.5 9C40.5 4.0275 36.4725 0 31.5 0C26.5275 0 22.5 4.0275 22.5 9C22.5 13.9725 26.5275 18 31.5 18ZM31.5 4.5C33.975 4.5 36 6.525 36 9C36 11.475 33.975 13.5 31.5 13.5C29.025 13.5 27 11.475 27 9C27 6.525 29.025 4.5 31.5 4.5ZM31.5 22.5C25.4925 22.5 13.5 25.515 13.5 31.5V36H49.5V31.5C49.5 25.515 37.5075 22.5 31.5 22.5ZM18 31.5C18.495 29.88 25.4475 27 31.5 27C37.575 27 44.55 29.9025 45 31.5H18ZM11.25 24.75V18H18V13.5H11.25V6.75H6.75V13.5H0V18H6.75V24.75H11.25Z" fill="black"/>
</svg>
