<svg width="178" height="178" viewBox="0 0 178 178" fill="none" xmlns="http://www.w3.org/2000/svg">
<path d="M178 89C178 102.652 174.86 116.12 168.822 128.364C162.784 140.607 154.01 151.298 143.18 159.608C132.349 167.919 119.752 173.627 106.363 176.29C92.9738 178.953 79.1514 178.501 65.9651 174.967C52.7788 171.434 40.582 164.915 30.3182 155.914C20.0545 146.913 11.9989 135.671 6.77472 123.059C1.55052 110.446 -0.702295 96.8014 0.190556 83.1791C1.08341 69.5569 5.09799 56.3225 11.9237 44.5L89 89H178Z" fill="#155F09"/>
<path d="M11.9237 44.5C21.7197 27.5329 36.8406 14.2722 54.9412 6.77472C73.0418 -0.722789 93.1105 -2.03817 112.035 3.0326C130.959 8.10336 147.682 19.2769 159.608 34.8202C171.535 50.3635 178 69.408 178 89L89 89L11.9237 44.5Z" fill="#F9E8AC"/>
</svg>
