<svg width="72" height="72" viewBox="0 0 72 72" fill="none" xmlns="http://www.w3.org/2000/svg">
<path d="M64 8V64H8V8H64ZM64 0H8C3.56 0 0 3.6 0 8V64C0 68.4 3.56 72 8 72H64C68.4 72 72 68.4 72 64V8C72 3.6 68.4 0 64 0ZM36 36C29.4 36 24 30.6 24 24C24 17.4 29.4 12 36 12C42.6 12 48 17.4 48 24C48 30.6 42.6 36 36 36ZM36 20C33.8 20 32 21.8 32 24C32 26.2 33.8 28 36 28C38.2 28 40 26.2 40 24C40 21.8 38.2 20 36 20ZM60 60H12V53.88C12 43.88 27.88 39.56 36 39.56C44.12 39.56 60 43.88 60 53.88V60ZM21.24 52H50.76C48 49.76 41.24 47.52 36 47.52C30.76 47.52 23.96 49.76 21.24 52Z" fill="black"/>
</svg>
